<?xml version="1.0" encoding="utf-8"?>
<!-- Generator: Adobe Illustrator 22.0.1, SVG Export Plug-In . SVG Version: 6.00 Build 0)  -->
<svg version="1.1" id="Camada_1" xmlns="http://www.w3.org/2000/svg" xmlns:xlink="http://www.w3.org/1999/xlink" x="0px" y="0px"
	 viewBox="0 0 1000 1000" style="enable-background:new 0 0 1000 1000;" xml:space="preserve">
<style type="text/css">
	.st0{fill:#ffffff;}
	.st1{fill:#1890FF;}
	.st2{fill:#333333;}
</style>
<g>
	<path class="st0" d="M248.2,512.9v-61.4c0-1.7,0.9-2.6,2.6-2.6h20.7c1.7,0,2.5,0.9,2.5,2.6v102.2c0,1.7-0.8,2.6-2.5,2.6h-29.6
		c-1.7,0-2.9-0.9-3.4-2.6l-20.9-61.8v61.8c0,1.7-0.8,2.6-2.5,2.6h-20.7c-1.7,0-2.6-0.9-2.6-2.6V451.5c0-1.7,0.9-2.6,2.6-2.6h29.8
		c1.7,0,2.9,0.9,3.4,2.6L248.2,512.9z"/>
	<path class="st0" d="M355.2,532c0,6.7-2.4,12.4-7.1,17.1c-4.7,4.7-10.4,7.1-17.1,7.1h-22.2c-6.7,0-12.4-2.4-17.1-7.1
		c-4.7-4.7-7.1-10.4-7.1-17.1v-59c0-6.7,2.4-12.4,7.1-17.1c4.7-4.7,10.4-7.1,17.1-7.1h22.2c6.7,0,12.4,2.4,17.1,7.1
		c4.7,4.7,7.1,10.4,7.1,17.1V532z M310.4,528.3c0,4.3,2.1,6.4,6.4,6.4h6.2c4.3,0,6.4-2.1,6.4-6.4v-51.5c0-4.3-2.1-6.4-6.4-6.4h-6.2
		c-4.3,0-6.4,2.1-6.4,6.4V528.3z"/>
	<path class="st1" d="M391.7,533.1c0,1.1,0.6,1.7,1.8,1.7h37.9c1.7,0,2.6,0.9,2.6,2.6v16.3c0,1.7-0.9,2.6-2.6,2.6h-41.2
		c-6.7,0-12.4-2.4-17.1-7.1c-4.7-4.7-7.1-10.4-7.1-17.1v-59c0-6.7,2.4-12.4,7.1-17.1c4.7-4.7,10.4-7.1,17.1-7.1h41.2
		c1.7,0,2.6,0.9,2.6,2.6v16.3c0,1.7-0.9,2.6-2.6,2.6h-37.9c-1.1,0-1.7,0.6-1.8,1.7V533.1z"/>
	<path class="st1" d="M515.2,532c0,6.7-2.4,12.4-7.1,17.1c-4.7,4.7-10.4,7.1-17.1,7.1h-22.2c-6.7,0-12.4-2.4-17.1-7.1
		c-4.7-4.7-7.1-10.4-7.1-17.1v-59c0-6.7,2.4-12.4,7.1-17.1c4.7-4.7,10.4-7.1,17.1-7.1h22.2c6.7,0,12.4,2.4,17.1,7.1
		c4.7,4.7,7.1,10.4,7.1,17.1V532z M470.4,528.3c0,4.3,2.1,6.4,6.4,6.4h6.2c4.3,0,6.4-2.1,6.4-6.4v-51.5c0-4.3-2.1-6.4-6.4-6.4h-6.2
		c-4.3,0-6.4,2.1-6.4,6.4V528.3z"/>
	<path class="st1" d="M597.2,532c0,6.7-2.4,12.4-7.1,17.1c-4.7,4.7-10.4,7.1-17.1,7.1h-44.4c-1.7,0-2.6-0.9-2.6-2.6V451.5
		c0-1.7,0.9-2.6,2.6-2.6H573c6.7,0,12.4,2.4,17.1,7.1c4.7,4.7,7.1,10.4,7.1,17.1V532z M551.7,533.1c0,1.1,0.6,1.7,1.7,1.7h13
		c3.3,0,5-1.7,5-5v-54.4c0-3.3-1.7-5-5-5h-13c-1.1,0-1.7,0.6-1.7,1.7V533.1z"/>
	<path class="st1" d="M607.9,532v-80.6c0-1.7,0.9-2.6,2.6-2.6h59.3c1.7,0,2.6,0.9,2.6,2.6v16.3c0,1.7-0.9,2.6-2.6,2.6h-34.3
		c-1.1,0-1.7,0.6-1.7,1.7v18c0,1.1,0.6,1.7,1.7,1.7H664c1.7,0,2.6,0.9,2.6,2.6v16.3c0,1.7-0.9,2.6-2.6,2.6h-28.6
		c-1.1,0-1.7,0.6-1.7,1.7v10.4c0,6.2,3.1,9.3,9.3,9.3h28.6c1.7,0,2.6,0.9,2.6,2.6v16.3c0,1.7-0.9,2.6-2.6,2.6h-39.4
		c-6.7,0-12.4-2.4-17.1-7.1C610.3,544.4,607.9,538.7,607.9,532z"/>
</g>
<circle class="st0" cx="741.2" cy="499.9" r="13.6"/>
<path class="st1" d="M770,503.3l-0.1,9.2c0,3.4,0,7,0.1,10.4c0,1.7-0.1,3.6-1.5,5c-1.4,1.4-2,1.6-3.3,1.6c-0.1,0-0.2,0-0.4,0
	c-2.6-0.1-5.4-0.1-8.9-0.1c-1.7,0-3.5,0-5.2,0c-1.7,0-3.5,0-5.2,0c-1.3,0-2.7,0-4,0c-14.3-0.1-26.4-9.7-29.2-23.4
	c-2.9-13.9,3.9-27.7,16.6-33.5c4-1.8,8.2-2.8,12.5-2.8c9.4,0,18.1,4.5,24,12.3c0.1,0.1,0.1,0.1,0.1,0.2c0,0,0.1,0,0.1-0.1
	c8.6-5.2,15.3-9,21.7-12.5c0,0,0,0,0,0c0,0,0-0.1-0.1-0.1c-11.7-16.3-26.9-24.6-45.1-24.6c-3.4,0-6.9,0.3-10.5,0.8
	c-25.6,3.9-44.9,27-44.9,53.7c0,26.7,19.4,49.2,45.1,53.3c4.2,0.7,8.7,1,14.7,1c2.2,0,4.5,0,6.6-0.1c2.1,0,4.1-0.1,6.1-0.1
	c1.9,0,3.5,0,4.9,0.1c3.3,0,5.2,0,8.3,0c2.9,0,5.6,0,8.3,0c2.5,0,4.7,0,6.8,0c3,0,5.5-2.4,5.5-5.5c-0.1-13.8-0.1-27.4,0-40.4
	c0-2.5-2-4.6-4.6-4.6l-6.6,0c-4.3,0-8.2,0-11.9-0.1"/>
<g>
	<path class="st2" d="M802.7,459.4l-1.2-1.7h-0.1h-1.2v1.7h-1.4v-6.2h2.7c0.5,0,1,0.1,1.4,0.3c0.4,0.2,0.7,0.4,0.9,0.8
		c0.2,0.3,0.3,0.7,0.3,1.2s-0.1,0.9-0.3,1.2c-0.2,0.3-0.5,0.6-0.9,0.8l1.4,2H802.7z M802.3,454.7c-0.2-0.2-0.6-0.3-1-0.3h-1.2v2.2
		h1.2c0.4,0,0.8-0.1,1-0.3c0.2-0.2,0.3-0.5,0.3-0.8C802.7,455.1,802.5,454.9,802.3,454.7z"/>
</g>
<path class="st2" d="M801.5,463.3c-3.7,0-6.7-3-6.7-6.7c0-3.7,3-6.7,6.7-6.7s6.7,3,6.7,6.7C808.1,460.3,805.1,463.3,801.5,463.3z
	 M801.5,451.2c-3,0-5.4,2.4-5.4,5.4s2.4,5.4,5.4,5.4c3,0,5.4-2.4,5.4-5.4S804.5,451.2,801.5,451.2z"/>
</svg>
